<svg width="56" height="42" viewBox="0 0 56 42" fill="none" xmlns="http://www.w3.org/2000/svg">
<path d="M50.0195 38.9093H5.80658C4.28676 38.9093 3.04327 37.6794 3.04327 36.1762V6.386C3.04327 4.88283 4.28676 3.65295 5.80658 3.65295H50.0195C51.5393 3.65295 52.7828 4.88283 52.7828 6.386V36.1762C52.7828 37.816 51.5393 38.9093 50.0195 38.9093Z" stroke="#FF6720" stroke-width="4" stroke-miterlimit="10" stroke-linecap="round" stroke-linejoin="round"/>
<path d="M50.0195 38.9093H40.7624C40.7624 32.3499 46.1508 27.0205 52.7828 27.0205V36.1762C52.7828 37.816 51.5393 38.9093 50.0195 38.9093Z" stroke="#FF6720" stroke-width="4" stroke-miterlimit="10" stroke-linecap="round" stroke-linejoin="round"/>
<path d="M50.0195 3.65295H40.7624C40.7624 10.2123 46.1508 15.5417 52.7828 15.5417V6.386C52.7828 4.88283 51.5393 3.65295 50.0195 3.65295Z" stroke="#FF6720" stroke-width="4" stroke-miterlimit="10" stroke-linecap="round" stroke-linejoin="round"/>
<path d="M5.80658 38.9093H15.0637C15.0637 32.3499 9.67521 27.0205 3.04327 27.0205V36.1762C3.04327 37.816 4.28676 38.9093 5.80658 38.9093Z" stroke="#FF6720" stroke-width="4" stroke-miterlimit="10" stroke-linecap="round" stroke-linejoin="round"/>
<path d="M5.80658 3.65295H15.0637C15.0637 10.2123 9.67521 15.5417 3.04327 15.5417V6.386C3.04327 4.88283 4.28676 3.65295 5.80658 3.65295Z" stroke="#FF6720" stroke-width="4" stroke-miterlimit="10" stroke-linecap="round" stroke-linejoin="round"/>
<path d="M27.2222 21.2811H26.9459C24.4589 21.2811 22.5246 19.368 22.5246 16.9082C22.5246 14.4485 24.4589 12.5353 26.9459 12.5353H31.6435" stroke="#DF0A5D" stroke-width="4" stroke-miterlimit="10" stroke-linecap="round" stroke-linejoin="round"/>
<path d="M27.2222 21.2811H28.6039C31.0908 21.2811 33.0252 23.1942 33.0252 25.6539C33.0252 28.1137 31.0908 30.0268 28.6039 30.0268H23.9062" stroke="#DF0A5D" stroke-width="4" stroke-miterlimit="10" stroke-linecap="round" stroke-linejoin="round"/>
</svg>
