<svg width="33" height="27" viewBox="0 0 33 27" fill="none" xmlns="http://www.w3.org/2000/svg">
<path d="M31.2124 19.7491H24.0997C22.7411 19.7491 21.7021 18.7462 21.7021 17.4348V16.5091C21.7021 15.1976 22.7411 14.1948 24.0997 14.1948H31.2124V19.7491Z" stroke="#F00E51" stroke-width="3" stroke-miterlimit="10" stroke-linecap="round" stroke-linejoin="round"/>
<path d="M31.2124 5.16906V4.62906C31.2124 2.93192 29.7738 1.54335 28.0156 1.54335H6.27793C4.20006 1.54335 2.44186 3.24049 2.44186 5.24621C2.44186 7.32906 4.20006 8.94906 6.27793 8.94906H28.0156C29.7738 8.94906 31.2124 10.3376 31.2124 12.0348V23.1433C31.2124 24.4548 30.1734 25.4576 28.8148 25.4576H7.23695C4.59965 25.4576 2.44186 23.3748 2.44186 20.8291V5.47764C2.44186 3.31764 4.27998 1.54335 6.51768 1.54335H22.1017" stroke="#F00E51" stroke-width="3" stroke-miterlimit="10" stroke-linecap="round" stroke-linejoin="round"/>
</svg>
