<svg width="26" height="26" viewBox="0 0 26 26" fill="none" xmlns="http://www.w3.org/2000/svg">
<path d="M8.91474 12.5022C8.30615 12.6465 7.76519 12.9946 7.38158 13.4886C6.99798 13.9826 6.7948 14.5929 6.80574 15.2182C7.30938 14.6909 7.93977 14.3016 8.63674 14.0872L8.91474 12.5022ZM4.84674 14.3252L3.68674 7.75324C3.67675 7.71989 3.68035 7.68394 3.69674 7.65323C5.81342 6.47766 8.19452 5.86027 10.6157 5.85923H10.7887C11.3024 5.35029 11.964 5.01704 12.6787 4.90724C13.3743 4.80189 14.0756 4.73778 14.7787 4.71524C14.6024 4.4564 14.376 4.23552 14.1129 4.06566C13.8497 3.89579 13.5552 3.78038 13.2467 3.72624C12.3778 3.58583 11.499 3.5156 10.6187 3.51624C7.79878 3.51585 5.02533 4.23485 2.56074 5.60524C2.12432 5.85491 1.77627 6.23401 1.5647 6.69011C1.35312 7.14622 1.28849 7.6568 1.37974 8.15123L2.54174 14.7192C3.06374 17.6662 7.53174 19.9192 10.0287 19.9192C10.1515 19.9182 10.274 19.9099 10.3957 19.8942C9.80688 19.1361 9.32068 18.3036 8.94974 17.4182C7.20574 16.9532 5.06274 15.5372 4.84674 14.3252V14.3252ZM8.42074 9.29824C8.39128 9.15268 8.34075 9.0122 8.27074 8.88123C7.9194 9.23321 7.468 9.46819 6.97815 9.5541C6.4883 9.64 5.98388 9.57266 5.53374 9.36124C5.50609 9.57016 5.52396 9.78258 5.58613 9.98394C5.6483 10.1853 5.75329 10.3708 5.89391 10.5278C6.03452 10.6847 6.20743 10.8094 6.40077 10.8933C6.59411 10.9771 6.80329 11.0182 7.01398 11.0136C7.22467 11.009 7.43187 10.9588 7.62136 10.8666C7.81086 10.7744 7.97816 10.6423 8.11179 10.4794C8.24543 10.3164 8.34223 10.1265 8.39556 9.92263C8.44888 9.71875 8.45747 9.50575 8.42074 9.29824V9.29824ZM23.5557 7.95824C20.3047 6.15174 16.5412 5.48932 12.8687 6.07723C12.3751 6.15517 11.9184 6.38606 11.563 6.73734C11.2076 7.08862 10.9714 7.54258 10.8877 8.03524L9.72374 14.6352C9.16074 17.8252 13.2137 21.8222 15.5237 22.2252C17.7977 22.6332 23.0107 20.2602 23.5747 17.0702L24.7367 10.4982C24.8285 10.0046 24.764 9.49468 24.5523 9.03942C24.3406 8.58416 23.9923 8.20623 23.5557 7.95824V7.95824ZM13.5497 11.5022C13.6249 11.1276 13.8433 10.7972 14.1585 10.5813C14.4737 10.3653 14.8607 10.281 15.2372 10.3461C15.6136 10.4113 15.9498 10.6209 16.174 10.9302C16.3983 11.2395 16.4929 11.6242 16.4377 12.0022C16.4088 12.1494 16.3579 12.2913 16.2867 12.4232C15.935 12.0719 15.484 11.837 14.9945 11.7503C14.505 11.6636 14.0007 11.7292 13.5497 11.9382C13.514 11.7951 13.514 11.6454 13.5497 11.5022V11.5022ZM16.0977 18.7772C15.1419 18.6216 14.2785 18.1153 13.676 17.3571C13.0736 16.599 12.7754 15.6435 12.8397 14.6772C13.8084 15.7115 15.0864 16.4035 16.4818 16.6494C17.8773 16.8954 19.3149 16.682 20.5787 16.0412C20.3103 16.9757 19.7009 17.7753 18.8711 18.2819C18.0413 18.7886 17.0516 18.9653 16.0977 18.7772V18.7772ZM20.9047 13.2382C20.5524 12.8866 20.1003 12.6518 19.6099 12.566C19.1196 12.4801 18.6146 12.5472 18.1637 12.7582C18.1409 12.6111 18.1409 12.4613 18.1637 12.3142C18.2378 11.9382 18.4563 11.6063 18.7723 11.3896C19.0884 11.1729 19.4768 11.0888 19.8542 11.1553C20.2316 11.2218 20.5679 11.4336 20.7908 11.7453C21.0138 12.0569 21.1057 12.4436 21.0467 12.8222C21.0163 12.9666 20.9672 13.1065 20.9007 13.2382H20.9047Z" fill="#C9E265"/>
</svg>
