<svg width="24" height="23" viewBox="0 0 24 23" fill="none" xmlns="http://www.w3.org/2000/svg">
<path d="M22.1982 8.24051C22.1963 7.23163 21.8955 6.24593 21.3338 5.40786C20.7721 4.5698 19.9747 3.91696 19.0422 3.53178C18.1098 3.1466 17.0841 3.04634 16.0947 3.24367C15.1053 3.441 14.1965 3.92708 13.4832 4.64051L12.0092 6.07852L10.5352 4.64051C10.0784 4.10524 9.51587 3.67029 8.88286 3.36299C8.24985 3.0557 7.5601 2.88271 6.857 2.85493C6.15389 2.82715 5.45264 2.94516 4.79736 3.20155C4.14207 3.45794 3.54694 3.84715 3.04938 4.34471C2.55182 4.84227 2.1626 5.43741 1.90622 6.09269C1.64983 6.74797 1.53182 7.44922 1.5596 8.15233C1.58739 8.85544 1.76036 9.54519 2.06766 10.1782C2.37495 10.8112 2.80992 11.3738 3.34518 11.8305L3.98518 12.4705H2.66218C2.45635 12.4778 2.26138 12.5647 2.11834 12.7129C1.97531 12.8611 1.89537 13.0591 1.89537 13.265C1.89537 13.471 1.97531 13.6689 2.11834 13.8171C2.26138 13.9653 2.45635 14.0522 2.66218 14.0595H5.53818L11.4562 19.9845C11.5291 20.0581 11.6158 20.1165 11.7114 20.1564C11.807 20.1963 11.9096 20.2168 12.0132 20.2168C12.1168 20.2168 12.2193 20.1963 12.3149 20.1564C12.4105 20.1165 12.4973 20.0581 12.5702 19.9845L18.4802 14.0595H21.3562C21.4658 14.0699 21.5764 14.0572 21.6809 14.0223C21.7854 13.9875 21.8814 13.9312 21.9629 13.857C22.0444 13.7829 22.1094 13.6926 22.154 13.5918C22.1985 13.4911 22.2215 13.3822 22.2215 13.272C22.2215 13.1619 22.1985 13.053 22.154 12.9522C22.1094 12.8515 22.0444 12.7611 21.9629 12.687C21.8814 12.6129 21.7854 12.5566 21.6809 12.5217C21.5764 12.4868 21.4658 12.4742 21.3562 12.4845H20.0632L20.7032 11.8445C21.1812 11.3734 21.5602 10.8114 21.8178 10.1916C22.0754 9.57177 22.2064 8.90671 22.2032 8.23552L22.1982 8.24051ZM12.0102 18.3065L7.74918 14.0505C7.8616 14.0433 7.97115 14.012 8.07037 13.9587C8.16959 13.9054 8.25617 13.8313 8.32418 13.7415L9.66118 11.9585L11.2862 15.7405C11.337 15.8584 11.4161 15.962 11.5163 16.0422C11.6166 16.1224 11.735 16.1768 11.8612 16.2005H12.0122C12.22 16.2003 12.4193 16.1176 12.5662 15.9705L15.6002 12.9505L16.4842 13.8345L12.0102 18.3065ZM19.5882 10.7355L17.8332 12.4825H17.3662L16.1582 11.2745C16.01 11.1276 15.8098 11.0452 15.6012 11.0452C15.3925 11.0452 15.1923 11.1276 15.0442 11.2745L12.2692 14.0495L10.5692 10.0875C10.5157 9.95994 10.4294 9.84881 10.3191 9.76535C10.2088 9.6819 10.0784 9.62911 9.94111 9.61235C9.8038 9.5956 9.66451 9.61547 9.53737 9.66994C9.41023 9.72441 9.29976 9.81155 9.21718 9.92252L7.29718 12.4825H6.18618L4.43218 10.7355C3.77047 10.0738 3.39872 9.17632 3.39872 8.24051C3.39872 7.3047 3.77047 6.40723 4.43218 5.74552C5.0939 5.0838 5.99138 4.71205 6.92718 4.71205C7.86299 4.71205 8.76047 5.0838 9.42218 5.74552L11.4572 7.78052C11.6053 7.92745 11.8055 8.00989 12.0142 8.00989C12.2228 8.00989 12.423 7.92745 12.5712 7.78052L14.5992 5.74552C14.9268 5.41787 15.3158 5.15796 15.7439 4.98064C16.172 4.80332 16.6308 4.71205 17.0942 4.71205C17.5575 4.71205 18.0164 4.80332 18.4445 4.98064C18.8726 5.15796 19.2615 5.41787 19.5892 5.74552C19.9168 6.07316 20.1767 6.46214 20.3541 6.89023C20.5314 7.31832 20.6226 7.77715 20.6226 8.24051C20.6226 8.70388 20.5314 9.16271 20.3541 9.59081C20.1767 10.0189 19.9168 10.4079 19.5892 10.7355H19.5882Z" fill="#FF9190"/>
</svg>
